<svg xmlns="http://www.w3.org/2000/svg" width="640" height="420" viewBox="0 0 640 420" role="img" aria-label="Admin dashboard analytics">
  <defs>
    <linearGradient id="b" x1="0" y1="0" x2="1" y2="1">
      <stop offset="0" stop-color="#0b5b50" stop-opacity="0.12"/>
      <stop offset="1" stop-color="#0b5b50" stop-opacity="0.04"/>
    </linearGradient>
  </defs>
  <rect x="24" y="24" width="592" height="372" rx="28" fill="url(#b)"/>
  <rect x="64" y="72" width="512" height="284" rx="24" fill="#ffffff" opacity="0.92"/>

  <rect x="92" y="98" width="220" height="52" rx="16" fill="#0b5b50" opacity="0.08"/>
  <rect x="104" y="114" width="120" height="10" rx="5" fill="#0b5b50" opacity="0.22"/>
  <rect x="104" y="132" width="160" height="10" rx="5" fill="#0b5b50" opacity="0.12"/>

  <rect x="328" y="98" width="220" height="52" rx="16" fill="#0b5b50" opacity="0.08"/>
  <rect x="340" y="114" width="92" height="10" rx="5" fill="#0b5b50" opacity="0.22"/>
  <rect x="340" y="132" width="150" height="10" rx="5" fill="#0b5b50" opacity="0.12"/>

  <rect x="92" y="170" width="456" height="156" rx="18" fill="#0b5b50" opacity="0.06"/>
  <path d="M120 300 L190 254 L250 270 L320 214 L390 236 L470 198 L520 214"
        fill="none" stroke="#16a34a" stroke-width="5" stroke-linecap="round" stroke-linejoin="round"/>
  <circle cx="190" cy="254" r="6" fill="#16a34a"/>
  <circle cx="320" cy="214" r="6" fill="#16a34a"/>
  <circle cx="470" cy="198" r="6" fill="#16a34a"/>

  <rect x="92" y="338" width="456" height="10" rx="5" fill="#0b5b50" opacity="0.10"/>

  <text x="96" y="386" font-family="system-ui, -apple-system, Segoe UI, Roboto, Arial" font-size="14" fill="#0b5b50" opacity="0.78">Dashboards • reports • notifications</text>
</svg>

